<?xml version="1.0" encoding="utf-8" standalone="no"?>
<!DOCTYPE svg PUBLIC "-//W3C//DTD SVG 1.1//EN"
  "http://www.w3.org/Graphics/SVG/1.1/DTD/svg11.dtd">
<svg xmlns:xlink="http://www.w3.org/1999/xlink" width="811.065781pt" height="393.117187pt" viewBox="0 0 811.065781 393.117187" xmlns="http://www.w3.org/2000/svg" version="1.1">
 <title>Illustrative learning curves in the unmasked style</title>
 <metadata>
  <rdf:RDF xmlns:dc="http://purl.org/dc/elements/1.1/" xmlns:cc="http://creativecommons.org/ns#" xmlns:rdf="http://www.w3.org/1999/02/22-rdf-syntax-ns#">
   <cc:Work>
    <dc:type rdf:resource="http://purl.org/dc/dcmitype/StillImage"/>
    <dc:title>Illustrative learning curves in the unmasked style</dc:title>
    <dc:description>Force-aware and pose-only illustrative learning curves.</dc:description>
    <dc:format>image/svg+xml</dc:format>
    <dc:creator>
     <cc:Agent>
      <dc:title>sinew_templates</dc:title>
     </cc:Agent>
    </dc:creator>
   </cc:Work>
  </rdf:RDF>
 </metadata>
 <defs>
  <style type="text/css">*{stroke-linejoin: round; stroke-linecap: butt}</style>
 </defs>
 <g id="figure_1">
  <g id="patch_1">
   <path d="M 0 393.117187
L 811.065781 393.117187
L 811.065781 0
L 0 0
z
" style="fill: #f7f9fb"/>
  </g>
  <g id="axes_1">
   <g id="patch_2">
    <path d="M 56.56 340.915781
L 788.595781 340.915781
L 788.595781 7.2
L 56.56 7.2
z
" style="fill: #e9ecef"/>
   </g>
   <g id="matplotlib.axis_1">
    <g id="xtick_1">
     <g id="line2d_1">
      <path d="M 56.56 340.915781
L 56.56 7.2
" clip-path="url(#p51d43095c0)" style="fill: none; stroke: #9ba2a9; stroke-opacity: 0.28; stroke-width: 0.8; stroke-linecap: square"/>
     </g>
     <g id="line2d_2">
      <defs>
       <path id="m4eca0f4349" d="M 0 0
L 0 3.5
" style="stroke: #5b6167; stroke-width: 0.8"/>
      </defs>
      <g>
       <use xlink:href="#m4eca0f4349" x="56.56" y="340.915781" style="fill: #5b6167; stroke: #5b6167; stroke-width: 0.8"/>
      </g>
     </g>
     <g id="text_1">
      <!-- 0 -->
      <g style="fill: #5b6167" transform="translate(51.47 360.072031) scale(0.16 -0.16)">
       <defs>
        <path id="DejaVuSans-13" d="M 2034 4250
Q 1547 4250 1301 3770
Q 1056 3291 1056 2328
Q 1056 1369 1301 889
Q 1547 409 2034 409
Q 2525 409 2770 889
Q 3016 1369 3016 2328
Q 3016 3291 2770 3770
Q 2525 4250 2034 4250
z
M 2034 4750
Q 2819 4750 3233 4129
Q 3647 3509 3647 2328
Q 3647 1150 3233 529
Q 2819 -91 2034 -91
Q 1250 -91 836 529
Q 422 1150 422 2328
Q 422 3509 836 4129
Q 1250 4750 2034 4750
z
" transform="scale(0.015625)"/>
       </defs>
       <use xlink:href="#DejaVuSans-13"/>
      </g>
     </g>
    </g>
    <g id="xtick_2">
     <g id="line2d_3">
      <path d="M 202.967156 340.915781
L 202.967156 7.2
" clip-path="url(#p51d43095c0)" style="fill: none; stroke: #9ba2a9; stroke-opacity: 0.28; stroke-width: 0.8; stroke-linecap: square"/>
     </g>
     <g id="line2d_4">
      <g>
       <use xlink:href="#m4eca0f4349" x="202.967156" y="340.915781" style="fill: #5b6167; stroke: #5b6167; stroke-width: 0.8"/>
      </g>
     </g>
     <g id="text_2">
      <!-- 20 -->
      <g style="fill: #5b6167" transform="translate(192.787156 360.072031) scale(0.16 -0.16)">
       <defs>
        <path id="DejaVuSans-15" d="M 1228 531
L 3431 531
L 3431 0
L 469 0
L 469 531
Q 828 903 1448 1529
Q 2069 2156 2228 2338
Q 2531 2678 2651 2914
Q 2772 3150 2772 3378
Q 2772 3750 2511 3984
Q 2250 4219 1831 4219
Q 1534 4219 1204 4116
Q 875 4013 500 3803
L 500 4441
Q 881 4594 1212 4672
Q 1544 4750 1819 4750
Q 2544 4750 2975 4387
Q 3406 4025 3406 3419
Q 3406 3131 3298 2873
Q 3191 2616 2906 2266
Q 2828 2175 2409 1742
Q 1991 1309 1228 531
z
" transform="scale(0.015625)"/>
       </defs>
       <use xlink:href="#DejaVuSans-15"/>
       <use xlink:href="#DejaVuSans-13" transform="translate(63.625 0)"/>
      </g>
     </g>
    </g>
    <g id="xtick_3">
     <g id="line2d_5">
      <path d="M 349.374312 340.915781
L 349.374312 7.2
" clip-path="url(#p51d43095c0)" style="fill: none; stroke: #9ba2a9; stroke-opacity: 0.28; stroke-width: 0.8; stroke-linecap: square"/>
     </g>
     <g id="line2d_6">
      <g>
       <use xlink:href="#m4eca0f4349" x="349.374312" y="340.915781" style="fill: #5b6167; stroke: #5b6167; stroke-width: 0.8"/>
      </g>
     </g>
     <g id="text_3">
      <!-- 40 -->
      <g style="fill: #5b6167" transform="translate(339.194312 360.072031) scale(0.16 -0.16)">
       <defs>
        <path id="DejaVuSans-17" d="M 2419 4116
L 825 1625
L 2419 1625
L 2419 4116
z
M 2253 4666
L 3047 4666
L 3047 1625
L 3713 1625
L 3713 1100
L 3047 1100
L 3047 0
L 2419 0
L 2419 1100
L 313 1100
L 313 1709
L 2253 4666
z
" transform="scale(0.015625)"/>
       </defs>
       <use xlink:href="#DejaVuSans-17"/>
       <use xlink:href="#DejaVuSans-13" transform="translate(63.625 0)"/>
      </g>
     </g>
    </g>
    <g id="xtick_4">
     <g id="line2d_7">
      <path d="M 495.781469 340.915781
L 495.781469 7.2
" clip-path="url(#p51d43095c0)" style="fill: none; stroke: #9ba2a9; stroke-opacity: 0.28; stroke-width: 0.8; stroke-linecap: square"/>
     </g>
     <g id="line2d_8">
      <g>
       <use xlink:href="#m4eca0f4349" x="495.781469" y="340.915781" style="fill: #5b6167; stroke: #5b6167; stroke-width: 0.8"/>
      </g>
     </g>
     <g id="text_4">
      <!-- 60 -->
      <g style="fill: #5b6167" transform="translate(485.601469 360.072031) scale(0.16 -0.16)">
       <defs>
        <path id="DejaVuSans-19" d="M 2113 2584
Q 1688 2584 1439 2293
Q 1191 2003 1191 1497
Q 1191 994 1439 701
Q 1688 409 2113 409
Q 2538 409 2786 701
Q 3034 994 3034 1497
Q 3034 2003 2786 2293
Q 2538 2584 2113 2584
z
M 3366 4563
L 3366 3988
Q 3128 4100 2886 4159
Q 2644 4219 2406 4219
Q 1781 4219 1451 3797
Q 1122 3375 1075 2522
Q 1259 2794 1537 2939
Q 1816 3084 2150 3084
Q 2853 3084 3261 2657
Q 3669 2231 3669 1497
Q 3669 778 3244 343
Q 2819 -91 2113 -91
Q 1303 -91 875 529
Q 447 1150 447 2328
Q 447 3434 972 4092
Q 1497 4750 2381 4750
Q 2619 4750 2861 4703
Q 3103 4656 3366 4563
z
" transform="scale(0.015625)"/>
       </defs>
       <use xlink:href="#DejaVuSans-19"/>
       <use xlink:href="#DejaVuSans-13" transform="translate(63.625 0)"/>
      </g>
     </g>
    </g>
    <g id="xtick_5">
     <g id="line2d_9">
      <path d="M 642.188625 340.915781
L 642.188625 7.2
" clip-path="url(#p51d43095c0)" style="fill: none; stroke: #9ba2a9; stroke-opacity: 0.28; stroke-width: 0.8; stroke-linecap: square"/>
     </g>
     <g id="line2d_10">
      <g>
       <use xlink:href="#m4eca0f4349" x="642.188625" y="340.915781" style="fill: #5b6167; stroke: #5b6167; stroke-width: 0.8"/>
      </g>
     </g>
     <g id="text_5">
      <!-- 80 -->
      <g style="fill: #5b6167" transform="translate(632.008625 360.072031) scale(0.16 -0.16)">
       <defs>
        <path id="DejaVuSans-1b" d="M 2034 2216
Q 1584 2216 1326 1975
Q 1069 1734 1069 1313
Q 1069 891 1326 650
Q 1584 409 2034 409
Q 2484 409 2743 651
Q 3003 894 3003 1313
Q 3003 1734 2745 1975
Q 2488 2216 2034 2216
z
M 1403 2484
Q 997 2584 770 2862
Q 544 3141 544 3541
Q 544 4100 942 4425
Q 1341 4750 2034 4750
Q 2731 4750 3128 4425
Q 3525 4100 3525 3541
Q 3525 3141 3298 2862
Q 3072 2584 2669 2484
Q 3125 2378 3379 2068
Q 3634 1759 3634 1313
Q 3634 634 3220 271
Q 2806 -91 2034 -91
Q 1263 -91 848 271
Q 434 634 434 1313
Q 434 1759 690 2068
Q 947 2378 1403 2484
z
M 1172 3481
Q 1172 3119 1398 2916
Q 1625 2713 2034 2713
Q 2441 2713 2670 2916
Q 2900 3119 2900 3481
Q 2900 3844 2670 4047
Q 2441 4250 2034 4250
Q 1625 4250 1398 4047
Q 1172 3844 1172 3481
z
" transform="scale(0.015625)"/>
       </defs>
       <use xlink:href="#DejaVuSans-1b"/>
       <use xlink:href="#DejaVuSans-13" transform="translate(63.625 0)"/>
      </g>
     </g>
    </g>
    <g id="xtick_6">
     <g id="line2d_11">
      <path d="M 788.595781 340.915781
L 788.595781 7.2
" clip-path="url(#p51d43095c0)" style="fill: none; stroke: #9ba2a9; stroke-opacity: 0.28; stroke-width: 0.8; stroke-linecap: square"/>
     </g>
     <g id="line2d_12">
      <g>
       <use xlink:href="#m4eca0f4349" x="788.595781" y="340.915781" style="fill: #5b6167; stroke: #5b6167; stroke-width: 0.8"/>
      </g>
     </g>
     <g id="text_6">
      <!-- 100 -->
      <g style="fill: #5b6167" transform="translate(773.325781 360.072031) scale(0.16 -0.16)">
       <defs>
        <path id="DejaVuSans-14" d="M 794 531
L 1825 531
L 1825 4091
L 703 3866
L 703 4441
L 1819 4666
L 2450 4666
L 2450 531
L 3481 531
L 3481 0
L 794 0
L 794 531
z
" transform="scale(0.015625)"/>
       </defs>
       <use xlink:href="#DejaVuSans-14"/>
       <use xlink:href="#DejaVuSans-13" transform="translate(63.625 0)"/>
       <use xlink:href="#DejaVuSans-13" transform="translate(127.25 0)"/>
      </g>
     </g>
    </g>
    <g id="text_7">
     <!-- Training steps (x1000) -->
     <g transform="translate(321.935391 381.592969) scale(0.18 -0.18)">
      <defs>
       <path id="DejaVuSans-37" d="M -19 4666
L 3928 4666
L 3928 4134
L 2272 4134
L 2272 0
L 1638 0
L 1638 4134
L -19 4134
L -19 4666
z
" transform="scale(0.015625)"/>
       <path id="DejaVuSans-55" d="M 2631 2963
Q 2534 3019 2420 3045
Q 2306 3072 2169 3072
Q 1681 3072 1420 2755
Q 1159 2438 1159 1844
L 1159 0
L 581 0
L 581 3500
L 1159 3500
L 1159 2956
Q 1341 3275 1631 3429
Q 1922 3584 2338 3584
Q 2397 3584 2469 3576
Q 2541 3569 2628 3553
L 2631 2963
z
" transform="scale(0.015625)"/>
       <path id="DejaVuSans-44" d="M 2194 1759
Q 1497 1759 1228 1600
Q 959 1441 959 1056
Q 959 750 1161 570
Q 1363 391 1709 391
Q 2188 391 2477 730
Q 2766 1069 2766 1631
L 2766 1759
L 2194 1759
z
M 3341 1997
L 3341 0
L 2766 0
L 2766 531
Q 2569 213 2275 61
Q 1981 -91 1556 -91
Q 1019 -91 701 211
Q 384 513 384 1019
Q 384 1609 779 1909
Q 1175 2209 1959 2209
L 2766 2209
L 2766 2266
Q 2766 2663 2505 2880
Q 2244 3097 1772 3097
Q 1472 3097 1187 3025
Q 903 2953 641 2809
L 641 3341
Q 956 3463 1253 3523
Q 1550 3584 1831 3584
Q 2591 3584 2966 3190
Q 3341 2797 3341 1997
z
" transform="scale(0.015625)"/>
       <path id="DejaVuSans-4c" d="M 603 3500
L 1178 3500
L 1178 0
L 603 0
L 603 3500
z
M 603 4863
L 1178 4863
L 1178 4134
L 603 4134
L 603 4863
z
" transform="scale(0.015625)"/>
       <path id="DejaVuSans-51" d="M 3513 2113
L 3513 0
L 2938 0
L 2938 2094
Q 2938 2591 2744 2837
Q 2550 3084 2163 3084
Q 1697 3084 1428 2787
Q 1159 2491 1159 1978
L 1159 0
L 581 0
L 581 3500
L 1159 3500
L 1159 2956
Q 1366 3272 1645 3428
Q 1925 3584 2291 3584
Q 2894 3584 3203 3211
Q 3513 2838 3513 2113
z
" transform="scale(0.015625)"/>
       <path id="DejaVuSans-4a" d="M 2906 1791
Q 2906 2416 2648 2759
Q 2391 3103 1925 3103
Q 1463 3103 1205 2759
Q 947 2416 947 1791
Q 947 1169 1205 825
Q 1463 481 1925 481
Q 2391 481 2648 825
Q 2906 1169 2906 1791
z
M 3481 434
Q 3481 -459 3084 -895
Q 2688 -1331 1869 -1331
Q 1566 -1331 1297 -1286
Q 1028 -1241 775 -1147
L 775 -588
Q 1028 -725 1275 -790
Q 1522 -856 1778 -856
Q 2344 -856 2625 -561
Q 2906 -266 2906 331
L 2906 616
Q 2728 306 2450 153
Q 2172 0 1784 0
Q 1141 0 747 490
Q 353 981 353 1791
Q 353 2603 747 3093
Q 1141 3584 1784 3584
Q 2172 3584 2450 3431
Q 2728 3278 2906 2969
L 2906 3500
L 3481 3500
L 3481 434
z
" transform="scale(0.015625)"/>
       <path id="DejaVuSans-3" transform="scale(0.015625)"/>
       <path id="DejaVuSans-56" d="M 2834 3397
L 2834 2853
Q 2591 2978 2328 3040
Q 2066 3103 1784 3103
Q 1356 3103 1142 2972
Q 928 2841 928 2578
Q 928 2378 1081 2264
Q 1234 2150 1697 2047
L 1894 2003
Q 2506 1872 2764 1633
Q 3022 1394 3022 966
Q 3022 478 2636 193
Q 2250 -91 1575 -91
Q 1294 -91 989 -36
Q 684 19 347 128
L 347 722
Q 666 556 975 473
Q 1284 391 1588 391
Q 1994 391 2212 530
Q 2431 669 2431 922
Q 2431 1156 2273 1281
Q 2116 1406 1581 1522
L 1381 1569
Q 847 1681 609 1914
Q 372 2147 372 2553
Q 372 3047 722 3315
Q 1072 3584 1716 3584
Q 2034 3584 2315 3537
Q 2597 3491 2834 3397
z
" transform="scale(0.015625)"/>
       <path id="DejaVuSans-57" d="M 1172 4494
L 1172 3500
L 2356 3500
L 2356 3053
L 1172 3053
L 1172 1153
Q 1172 725 1289 603
Q 1406 481 1766 481
L 2356 481
L 2356 0
L 1766 0
Q 1100 0 847 248
Q 594 497 594 1153
L 594 3053
L 172 3053
L 172 3500
L 594 3500
L 594 4494
L 1172 4494
z
" transform="scale(0.015625)"/>
       <path id="DejaVuSans-48" d="M 3597 1894
L 3597 1613
L 953 1613
Q 991 1019 1311 708
Q 1631 397 2203 397
Q 2534 397 2845 478
Q 3156 559 3463 722
L 3463 178
Q 3153 47 2828 -22
Q 2503 -91 2169 -91
Q 1331 -91 842 396
Q 353 884 353 1716
Q 353 2575 817 3079
Q 1281 3584 2069 3584
Q 2775 3584 3186 3129
Q 3597 2675 3597 1894
z
M 3022 2063
Q 3016 2534 2758 2815
Q 2500 3097 2075 3097
Q 1594 3097 1305 2825
Q 1016 2553 972 2059
L 3022 2063
z
" transform="scale(0.015625)"/>
       <path id="DejaVuSans-53" d="M 1159 525
L 1159 -1331
L 581 -1331
L 581 3500
L 1159 3500
L 1159 2969
Q 1341 3281 1617 3432
Q 1894 3584 2278 3584
Q 2916 3584 3314 3078
Q 3713 2572 3713 1747
Q 3713 922 3314 415
Q 2916 -91 2278 -91
Q 1894 -91 1617 61
Q 1341 213 1159 525
z
M 3116 1747
Q 3116 2381 2855 2742
Q 2594 3103 2138 3103
Q 1681 3103 1420 2742
Q 1159 2381 1159 1747
Q 1159 1113 1420 752
Q 1681 391 2138 391
Q 2594 391 2855 752
Q 3116 1113 3116 1747
z
" transform="scale(0.015625)"/>
       <path id="DejaVuSans-b" d="M 1984 4856
Q 1566 4138 1362 3434
Q 1159 2731 1159 2009
Q 1159 1288 1364 580
Q 1569 -128 1984 -844
L 1484 -844
Q 1016 -109 783 600
Q 550 1309 550 2009
Q 550 2706 781 3412
Q 1013 4119 1484 4856
L 1984 4856
z
" transform="scale(0.015625)"/>
       <path id="DejaVuSans-5b" d="M 3513 3500
L 2247 1797
L 3578 0
L 2900 0
L 1881 1375
L 863 0
L 184 0
L 1544 1831
L 300 3500
L 978 3500
L 1906 2253
L 2834 3500
L 3513 3500
z
" transform="scale(0.015625)"/>
       <path id="DejaVuSans-c" d="M 513 4856
L 1013 4856
Q 1481 4119 1714 3412
Q 1947 2706 1947 2009
Q 1947 1309 1714 600
Q 1481 -109 1013 -844
L 513 -844
Q 928 -128 1133 580
Q 1338 1288 1338 2009
Q 1338 2731 1133 3434
Q 928 4138 513 4856
z
" transform="scale(0.015625)"/>
      </defs>
      <use xlink:href="#DejaVuSans-37"/>
      <use xlink:href="#DejaVuSans-55" transform="translate(46.375 0)"/>
      <use xlink:href="#DejaVuSans-44" transform="translate(87.484375 0)"/>
      <use xlink:href="#DejaVuSans-4c" transform="translate(148.765625 0)"/>
      <use xlink:href="#DejaVuSans-51" transform="translate(176.546875 0)"/>
      <use xlink:href="#DejaVuSans-4c" transform="translate(239.921875 0)"/>
      <use xlink:href="#DejaVuSans-51" transform="translate(267.703125 0)"/>
      <use xlink:href="#DejaVuSans-4a" transform="translate(331.078125 0)"/>
      <use xlink:href="#DejaVuSans-3" transform="translate(394.5625 0)"/>
      <use xlink:href="#DejaVuSans-56" transform="translate(426.34375 0)"/>
      <use xlink:href="#DejaVuSans-57" transform="translate(478.4375 0)"/>
      <use xlink:href="#DejaVuSans-48" transform="translate(517.640625 0)"/>
      <use xlink:href="#DejaVuSans-53" transform="translate(579.171875 0)"/>
      <use xlink:href="#DejaVuSans-56" transform="translate(642.65625 0)"/>
      <use xlink:href="#DejaVuSans-3" transform="translate(694.75 0)"/>
      <use xlink:href="#DejaVuSans-b" transform="translate(726.53125 0)"/>
      <use xlink:href="#DejaVuSans-5b" transform="translate(765.546875 0)"/>
      <use xlink:href="#DejaVuSans-14" transform="translate(824.734375 0)"/>
      <use xlink:href="#DejaVuSans-13" transform="translate(888.359375 0)"/>
      <use xlink:href="#DejaVuSans-13" transform="translate(951.984375 0)"/>
      <use xlink:href="#DejaVuSans-13" transform="translate(1015.609375 0)"/>
      <use xlink:href="#DejaVuSans-c" transform="translate(1079.234375 0)"/>
     </g>
    </g>
   </g>
   <g id="matplotlib.axis_2">
    <g id="ytick_1">
     <g id="line2d_13">
      <path d="M 56.56 340.915781
L 788.595781 340.915781
" clip-path="url(#p51d43095c0)" style="fill: none; stroke: #9ba2a9; stroke-opacity: 0.28; stroke-width: 0.8; stroke-linecap: square"/>
     </g>
     <g id="line2d_14">
      <defs>
       <path id="md8a2744a8d" d="M 0 0
L -3.5 0
" style="stroke: #5b6167; stroke-width: 0.8"/>
      </defs>
      <g>
       <use xlink:href="#md8a2744a8d" x="56.56" y="340.915781" style="fill: #5b6167; stroke: #5b6167; stroke-width: 0.8"/>
      </g>
     </g>
     <g id="text_8">
      <!-- 20 -->
      <g style="fill: #5b6167" transform="translate(29.2 346.993906) scale(0.16 -0.16)">
       <use xlink:href="#DejaVuSans-15"/>
       <use xlink:href="#DejaVuSans-13" transform="translate(63.625 0)"/>
      </g>
     </g>
    </g>
    <g id="ytick_2">
     <g id="line2d_15">
      <path d="M 56.56 294.566367
L 788.595781 294.566367
" clip-path="url(#p51d43095c0)" style="fill: none; stroke: #9ba2a9; stroke-opacity: 0.28; stroke-width: 0.8; stroke-linecap: square"/>
     </g>
     <g id="line2d_16">
      <g>
       <use xlink:href="#md8a2744a8d" x="56.56" y="294.566367" style="fill: #5b6167; stroke: #5b6167; stroke-width: 0.8"/>
      </g>
     </g>
     <g id="text_9">
      <!-- 30 -->
      <g style="fill: #5b6167" transform="translate(29.2 300.644492) scale(0.16 -0.16)">
       <defs>
        <path id="DejaVuSans-16" d="M 2597 2516
Q 3050 2419 3304 2112
Q 3559 1806 3559 1356
Q 3559 666 3084 287
Q 2609 -91 1734 -91
Q 1441 -91 1130 -33
Q 819 25 488 141
L 488 750
Q 750 597 1062 519
Q 1375 441 1716 441
Q 2309 441 2620 675
Q 2931 909 2931 1356
Q 2931 1769 2642 2001
Q 2353 2234 1838 2234
L 1294 2234
L 1294 2753
L 1863 2753
Q 2328 2753 2575 2939
Q 2822 3125 2822 3475
Q 2822 3834 2567 4026
Q 2313 4219 1838 4219
Q 1578 4219 1281 4162
Q 984 4106 628 3988
L 628 4550
Q 988 4650 1302 4700
Q 1616 4750 1894 4750
Q 2613 4750 3031 4423
Q 3450 4097 3450 3541
Q 3450 3153 3228 2886
Q 3006 2619 2597 2516
z
" transform="scale(0.015625)"/>
       </defs>
       <use xlink:href="#DejaVuSans-16"/>
       <use xlink:href="#DejaVuSans-13" transform="translate(63.625 0)"/>
      </g>
     </g>
    </g>
    <g id="ytick_3">
     <g id="line2d_17">
      <path d="M 56.56 248.216953
L 788.595781 248.216953
" clip-path="url(#p51d43095c0)" style="fill: none; stroke: #9ba2a9; stroke-opacity: 0.28; stroke-width: 0.8; stroke-linecap: square"/>
     </g>
     <g id="line2d_18">
      <g>
       <use xlink:href="#md8a2744a8d" x="56.56" y="248.216953" style="fill: #5b6167; stroke: #5b6167; stroke-width: 0.8"/>
      </g>
     </g>
     <g id="text_10">
      <!-- 40 -->
      <g style="fill: #5b6167" transform="translate(29.2 254.295078) scale(0.16 -0.16)">
       <use xlink:href="#DejaVuSans-17"/>
       <use xlink:href="#DejaVuSans-13" transform="translate(63.625 0)"/>
      </g>
     </g>
    </g>
    <g id="ytick_4">
     <g id="line2d_19">
      <path d="M 56.56 201.867539
L 788.595781 201.867539
" clip-path="url(#p51d43095c0)" style="fill: none; stroke: #9ba2a9; stroke-opacity: 0.28; stroke-width: 0.8; stroke-linecap: square"/>
     </g>
     <g id="line2d_20">
      <g>
       <use xlink:href="#md8a2744a8d" x="56.56" y="201.867539" style="fill: #5b6167; stroke: #5b6167; stroke-width: 0.8"/>
      </g>
     </g>
     <g id="text_11">
      <!-- 50 -->
      <g style="fill: #5b6167" transform="translate(29.2 207.945664) scale(0.16 -0.16)">
       <defs>
        <path id="DejaVuSans-18" d="M 691 4666
L 3169 4666
L 3169 4134
L 1269 4134
L 1269 2991
Q 1406 3038 1543 3061
Q 1681 3084 1819 3084
Q 2600 3084 3056 2656
Q 3513 2228 3513 1497
Q 3513 744 3044 326
Q 2575 -91 1722 -91
Q 1428 -91 1123 -41
Q 819 9 494 109
L 494 744
Q 775 591 1075 516
Q 1375 441 1709 441
Q 2250 441 2565 725
Q 2881 1009 2881 1497
Q 2881 1984 2565 2268
Q 2250 2553 1709 2553
Q 1456 2553 1204 2497
Q 953 2441 691 2322
L 691 4666
z
" transform="scale(0.015625)"/>
       </defs>
       <use xlink:href="#DejaVuSans-18"/>
       <use xlink:href="#DejaVuSans-13" transform="translate(63.625 0)"/>
      </g>
     </g>
    </g>
    <g id="ytick_5">
     <g id="line2d_21">
      <path d="M 56.56 155.518125
L 788.595781 155.518125
" clip-path="url(#p51d43095c0)" style="fill: none; stroke: #9ba2a9; stroke-opacity: 0.28; stroke-width: 0.8; stroke-linecap: square"/>
     </g>
     <g id="line2d_22">
      <g>
       <use xlink:href="#md8a2744a8d" x="56.56" y="155.518125" style="fill: #5b6167; stroke: #5b6167; stroke-width: 0.8"/>
      </g>
     </g>
     <g id="text_12">
      <!-- 60 -->
      <g style="fill: #5b6167" transform="translate(29.2 161.59625) scale(0.16 -0.16)">
       <use xlink:href="#DejaVuSans-19"/>
       <use xlink:href="#DejaVuSans-13" transform="translate(63.625 0)"/>
      </g>
     </g>
    </g>
    <g id="ytick_6">
     <g id="line2d_23">
      <path d="M 56.56 109.168711
L 788.595781 109.168711
" clip-path="url(#p51d43095c0)" style="fill: none; stroke: #9ba2a9; stroke-opacity: 0.28; stroke-width: 0.8; stroke-linecap: square"/>
     </g>
     <g id="line2d_24">
      <g>
       <use xlink:href="#md8a2744a8d" x="56.56" y="109.168711" style="fill: #5b6167; stroke: #5b6167; stroke-width: 0.8"/>
      </g>
     </g>
     <g id="text_13">
      <!-- 70 -->
      <g style="fill: #5b6167" transform="translate(29.2 115.246836) scale(0.16 -0.16)">
       <defs>
        <path id="DejaVuSans-1a" d="M 525 4666
L 3525 4666
L 3525 4397
L 1831 0
L 1172 0
L 2766 4134
L 525 4134
L 525 4666
z
" transform="scale(0.015625)"/>
       </defs>
       <use xlink:href="#DejaVuSans-1a"/>
       <use xlink:href="#DejaVuSans-13" transform="translate(63.625 0)"/>
      </g>
     </g>
    </g>
    <g id="ytick_7">
     <g id="line2d_25">
      <path d="M 56.56 62.819297
L 788.595781 62.819297
" clip-path="url(#p51d43095c0)" style="fill: none; stroke: #9ba2a9; stroke-opacity: 0.28; stroke-width: 0.8; stroke-linecap: square"/>
     </g>
     <g id="line2d_26">
      <g>
       <use xlink:href="#md8a2744a8d" x="56.56" y="62.819297" style="fill: #5b6167; stroke: #5b6167; stroke-width: 0.8"/>
      </g>
     </g>
     <g id="text_14">
      <!-- 80 -->
      <g style="fill: #5b6167" transform="translate(29.2 68.897422) scale(0.16 -0.16)">
       <use xlink:href="#DejaVuSans-1b"/>
       <use xlink:href="#DejaVuSans-13" transform="translate(63.625 0)"/>
      </g>
     </g>
    </g>
    <g id="ytick_8">
     <g id="line2d_27">
      <path d="M 56.56 16.469883
L 788.595781 16.469883
" clip-path="url(#p51d43095c0)" style="fill: none; stroke: #9ba2a9; stroke-opacity: 0.28; stroke-width: 0.8; stroke-linecap: square"/>
     </g>
     <g id="line2d_28">
      <g>
       <use xlink:href="#md8a2744a8d" x="56.56" y="16.469883" style="fill: #5b6167; stroke: #5b6167; stroke-width: 0.8"/>
      </g>
     </g>
     <g id="text_15">
      <!-- 90 -->
      <g style="fill: #5b6167" transform="translate(29.2 22.548008) scale(0.16 -0.16)">
       <defs>
        <path id="DejaVuSans-1c" d="M 703 97
L 703 672
Q 941 559 1184 500
Q 1428 441 1663 441
Q 2288 441 2617 861
Q 2947 1281 2994 2138
Q 2813 1869 2534 1725
Q 2256 1581 1919 1581
Q 1219 1581 811 2004
Q 403 2428 403 3163
Q 403 3881 828 4315
Q 1253 4750 1959 4750
Q 2769 4750 3195 4129
Q 3622 3509 3622 2328
Q 3622 1225 3098 567
Q 2575 -91 1691 -91
Q 1453 -91 1209 -44
Q 966 3 703 97
z
M 1959 2075
Q 2384 2075 2632 2365
Q 2881 2656 2881 3163
Q 2881 3666 2632 3958
Q 2384 4250 1959 4250
Q 1534 4250 1286 3958
Q 1038 3666 1038 3163
Q 1038 2656 1286 2365
Q 1534 2075 1959 2075
z
" transform="scale(0.015625)"/>
       </defs>
       <use xlink:href="#DejaVuSans-1c"/>
       <use xlink:href="#DejaVuSans-13" transform="translate(63.625 0)"/>
      </g>
     </g>
    </g>
    <g id="text_16">
     <!-- Success rate (%) -->
     <g transform="translate(20.875781 249.863203) rotate(-90) scale(0.18 -0.18)">
      <defs>
       <path id="DejaVuSans-36" d="M 3425 4513
L 3425 3897
Q 3066 4069 2747 4153
Q 2428 4238 2131 4238
Q 1616 4238 1336 4038
Q 1056 3838 1056 3469
Q 1056 3159 1242 3001
Q 1428 2844 1947 2747
L 2328 2669
Q 3034 2534 3370 2195
Q 3706 1856 3706 1288
Q 3706 609 3251 259
Q 2797 -91 1919 -91
Q 1588 -91 1214 -16
Q 841 59 441 206
L 441 856
Q 825 641 1194 531
Q 1563 422 1919 422
Q 2459 422 2753 634
Q 3047 847 3047 1241
Q 3047 1584 2836 1778
Q 2625 1972 2144 2069
L 1759 2144
Q 1053 2284 737 2584
Q 422 2884 422 3419
Q 422 4038 858 4394
Q 1294 4750 2059 4750
Q 2388 4750 2728 4690
Q 3069 4631 3425 4513
z
" transform="scale(0.015625)"/>
       <path id="DejaVuSans-58" d="M 544 1381
L 544 3500
L 1119 3500
L 1119 1403
Q 1119 906 1312 657
Q 1506 409 1894 409
Q 2359 409 2629 706
Q 2900 1003 2900 1516
L 2900 3500
L 3475 3500
L 3475 0
L 2900 0
L 2900 538
Q 2691 219 2414 64
Q 2138 -91 1772 -91
Q 1169 -91 856 284
Q 544 659 544 1381
z
M 1991 3584
L 1991 3584
z
" transform="scale(0.015625)"/>
       <path id="DejaVuSans-46" d="M 3122 3366
L 3122 2828
Q 2878 2963 2633 3030
Q 2388 3097 2138 3097
Q 1578 3097 1268 2742
Q 959 2388 959 1747
Q 959 1106 1268 751
Q 1578 397 2138 397
Q 2388 397 2633 464
Q 2878 531 3122 666
L 3122 134
Q 2881 22 2623 -34
Q 2366 -91 2075 -91
Q 1284 -91 818 406
Q 353 903 353 1747
Q 353 2603 823 3093
Q 1294 3584 2113 3584
Q 2378 3584 2631 3529
Q 2884 3475 3122 3366
z
" transform="scale(0.015625)"/>
       <path id="DejaVuSans-8" d="M 4653 2053
Q 4381 2053 4226 1822
Q 4072 1591 4072 1178
Q 4072 772 4226 539
Q 4381 306 4653 306
Q 4919 306 5073 539
Q 5228 772 5228 1178
Q 5228 1588 5073 1820
Q 4919 2053 4653 2053
z
M 4653 2450
Q 5147 2450 5437 2106
Q 5728 1763 5728 1178
Q 5728 594 5436 251
Q 5144 -91 4653 -91
Q 4153 -91 3862 251
Q 3572 594 3572 1178
Q 3572 1766 3864 2108
Q 4156 2450 4653 2450
z
M 1428 4353
Q 1159 4353 1004 4120
Q 850 3888 850 3481
Q 850 3069 1003 2837
Q 1156 2606 1428 2606
Q 1700 2606 1854 2837
Q 2009 3069 2009 3481
Q 2009 3884 1853 4118
Q 1697 4353 1428 4353
z
M 4250 4750
L 4750 4750
L 1831 -91
L 1331 -91
L 4250 4750
z
M 1428 4750
Q 1922 4750 2215 4408
Q 2509 4066 2509 3481
Q 2509 2891 2217 2550
Q 1925 2209 1428 2209
Q 931 2209 642 2551
Q 353 2894 353 3481
Q 353 4063 643 4406
Q 934 4750 1428 4750
z
" transform="scale(0.015625)"/>
      </defs>
      <use xlink:href="#DejaVuSans-36"/>
      <use xlink:href="#DejaVuSans-58" transform="translate(63.484375 0)"/>
      <use xlink:href="#DejaVuSans-46" transform="translate(126.859375 0)"/>
      <use xlink:href="#DejaVuSans-46" transform="translate(181.84375 0)"/>
      <use xlink:href="#DejaVuSans-48" transform="translate(236.828125 0)"/>
      <use xlink:href="#DejaVuSans-56" transform="translate(298.359375 0)"/>
      <use xlink:href="#DejaVuSans-56" transform="translate(350.453125 0)"/>
      <use xlink:href="#DejaVuSans-3" transform="translate(402.546875 0)"/>
      <use xlink:href="#DejaVuSans-55" transform="translate(434.328125 0)"/>
      <use xlink:href="#DejaVuSans-44" transform="translate(475.4375 0)"/>
      <use xlink:href="#DejaVuSans-57" transform="translate(536.71875 0)"/>
      <use xlink:href="#DejaVuSans-48" transform="translate(575.921875 0)"/>
      <use xlink:href="#DejaVuSans-3" transform="translate(637.453125 0)"/>
      <use xlink:href="#DejaVuSans-b" transform="translate(669.234375 0)"/>
      <use xlink:href="#DejaVuSans-8" transform="translate(708.25 0)"/>
      <use xlink:href="#DejaVuSans-c" transform="translate(803.265625 0)"/>
     </g>
    </g>
   </g>
   <g id="FillBetweenPolyCollection_1">
    <defs>
     <path id="mb2dfaaa216" d="M 56.56 -121.725527
L 56.56 -75.376113
L 93.161789 -115.570434
L 129.763578 -149.647557
L 166.365367 -178.546586
L 202.967156 -203.062452
L 239.568945 -223.86805
L 276.170734 -241.532975
L 312.772523 -256.539377
L 349.374312 -269.295389
L 385.976102 -280.146485
L 422.577891 -289.385106
L 459.17968 -297.258796
L 495.781469 -303.977097
L 532.383258 -309.717382
L 568.985047 -314.629795
L 605.586836 -318.841428
L 642.188625 -322.459865
L 678.790414 -325.576172
L 715.392203 -328.267435
L 751.993992 -330.598906
L 788.595781 -332.625819
L 788.595781 -365.070409
L 788.595781 -365.070409
L 751.993992 -363.738737
L 715.392203 -362.102507
L 678.790414 -360.106485
L 642.188625 -357.68542
L 605.586836 -354.762224
L 568.985047 -351.245832
L 532.383258 -347.028661
L 495.781469 -341.983617
L 459.17968 -335.960557
L 422.577891 -328.782108
L 385.976102 -320.238728
L 349.374312 -310.082873
L 312.772523 -298.022103
L 276.170734 -283.710942
L 239.568945 -266.741258
L 202.967156 -246.630901
L 166.365367 -222.810276
L 129.763578 -194.606489
L 93.161789 -161.224606
L 56.56 -121.725527
z
"/>
    </defs>
    <g clip-path="url(#p51d43095c0)">
     <use xlink:href="#mb2dfaaa216" x="0" y="393.117187" style="fill-opacity: 0.16"/>
    </g>
   </g>
   <g id="FillBetweenPolyCollection_2">
    <defs>
     <path id="m55cc53efca" d="M 56.56 -114.773115
L 56.56 -63.78876
L 93.161789 -88.107178
L 129.763578 -109.13158
L 166.365367 -127.312445
L 202.967156 -143.038646
L 239.568945 -156.645876
L 276.170734 -168.423916
L 312.772523 -178.622923
L 349.374312 -187.458839
L 385.976102 -195.118077
L 422.577891 -201.761554
L 459.17968 -207.528184
L 495.781469 -212.537881
L 532.383258 -216.894161
L 568.985047 -220.686383
L 605.586836 -223.991686
L 642.188625 -226.876659
L 678.790414 -229.398785
L 715.392203 -231.607687
L 751.993992 -233.546199
L 788.595781 -235.251299
L 788.595781 -276.965772
L 788.595781 -276.965772
L 751.993992 -275.724166
L 715.392203 -274.249148
L 678.790414 -272.50374
L 642.188625 -270.445108
L 605.586836 -268.023629
L 568.985047 -265.181821
L 532.383258 -261.853093
L 495.781469 -257.960307
L 459.17968 -253.414104
L 422.577891 -248.110969
L 385.976102 -241.930985
L 349.374312 -234.735242
L 312.772523 -226.36282
L 276.170734 -216.627307
L 239.568945 -205.31276
L 202.967156 -192.169025
L 166.365367 -176.906318
L 129.763578 -159.188947
L 93.161789 -138.628039
L 56.56 -114.773115
z
"/>
    </defs>
    <g clip-path="url(#p51d43095c0)">
     <use xlink:href="#m55cc53efca" x="0" y="393.117187" style="fill: #34383c; fill-opacity: 0.14"/>
    </g>
   </g>
   <g id="line2d_29">
    <path d="M 56.56 294.566367
L 93.161789 254.719667
L 129.763578 220.990164
L 166.365367 192.438756
L 202.967156 168.270511
L 239.568945 147.812533
L 276.170734 130.495229
L 312.772523 115.836447
L 349.374312 103.428057
L 385.976102 92.924581
L 422.577891 84.03358
L 459.17968 76.507511
L 495.781469 70.13683
L 532.383258 64.744166
L 568.985047 60.179374
L 605.586836 56.315361
L 642.188625 53.044545
L 678.790414 50.275859
L 715.392203 47.932217
L 751.993992 45.948366
L 788.595781 44.269073
" clip-path="url(#p51d43095c0)" style="fill: none; stroke: #000000; stroke-width: 2.5; stroke-linecap: square"/>
    <defs>
     <path id="m9272bf99e7" d="M 0 4
C 1.060812 4 2.078319 3.578535 2.828427 2.828427
C 3.578535 2.078319 4 1.060812 4 0
C 4 -1.060812 3.578535 -2.078319 2.828427 -2.828427
C 2.078319 -3.578535 1.060812 -4 0 -4
C -1.060812 -4 -2.078319 -3.578535 -2.828427 -2.828427
C -3.578535 -2.078319 -4 -1.060812 -4 0
C -4 1.060812 -3.578535 2.078319 -2.828427 2.828427
C -2.078319 3.578535 -1.060812 4 0 4
z
" style="stroke: #000000"/>
    </defs>
    <g clip-path="url(#p51d43095c0)">
     <use xlink:href="#m9272bf99e7" x="56.56" y="294.566367" style="stroke: #000000"/>
     <use xlink:href="#m9272bf99e7" x="129.763578" y="220.990164" style="stroke: #000000"/>
     <use xlink:href="#m9272bf99e7" x="202.967156" y="168.270511" style="stroke: #000000"/>
     <use xlink:href="#m9272bf99e7" x="276.170734" y="130.495229" style="stroke: #000000"/>
     <use xlink:href="#m9272bf99e7" x="349.374312" y="103.428057" style="stroke: #000000"/>
     <use xlink:href="#m9272bf99e7" x="422.577891" y="84.03358" style="stroke: #000000"/>
     <use xlink:href="#m9272bf99e7" x="495.781469" y="70.13683" style="stroke: #000000"/>
     <use xlink:href="#m9272bf99e7" x="568.985047" y="60.179374" style="stroke: #000000"/>
     <use xlink:href="#m9272bf99e7" x="642.188625" y="53.044545" style="stroke: #000000"/>
     <use xlink:href="#m9272bf99e7" x="715.392203" y="47.932217" style="stroke: #000000"/>
     <use xlink:href="#m9272bf99e7" x="788.595781" y="44.269073" style="stroke: #000000"/>
    </g>
   </g>
   <g id="line2d_30">
    <path d="M 56.56 303.83625
L 93.161789 279.749579
L 129.763578 258.956924
L 166.365367 241.007806
L 202.967156 225.513352
L 239.568945 212.13787
L 276.170734 200.591576
L 312.772523 190.624316
L 349.374312 182.020147
L 385.976102 174.592657
L 422.577891 168.180926
L 459.17968 162.646043
L 495.781469 157.868093
L 532.383258 153.743561
L 568.985047 150.183086
L 605.586836 147.10953
L 642.188625 144.456304
L 678.790414 142.165925
L 715.392203 140.18877
L 751.993992 138.482005
L 788.595781 137.008652
" clip-path="url(#p51d43095c0)" style="fill: none; stroke-dasharray: 9.25,4; stroke-dashoffset: 0; stroke: #34383c; stroke-width: 2.5"/>
    <defs>
     <path id="m8772c4d81b" d="M -4 4
L 4 4
L 4 -4
L -4 -4
z
" style="stroke: #34383c; stroke-linejoin: miter"/>
    </defs>
    <g clip-path="url(#p51d43095c0)">
     <use xlink:href="#m8772c4d81b" x="56.56" y="303.83625" style="fill: #34383c; stroke: #34383c; stroke-linejoin: miter"/>
     <use xlink:href="#m8772c4d81b" x="129.763578" y="258.956924" style="fill: #34383c; stroke: #34383c; stroke-linejoin: miter"/>
     <use xlink:href="#m8772c4d81b" x="202.967156" y="225.513352" style="fill: #34383c; stroke: #34383c; stroke-linejoin: miter"/>
     <use xlink:href="#m8772c4d81b" x="276.170734" y="200.591576" style="fill: #34383c; stroke: #34383c; stroke-linejoin: miter"/>
     <use xlink:href="#m8772c4d81b" x="349.374312" y="182.020147" style="fill: #34383c; stroke: #34383c; stroke-linejoin: miter"/>
     <use xlink:href="#m8772c4d81b" x="422.577891" y="168.180926" style="fill: #34383c; stroke: #34383c; stroke-linejoin: miter"/>
     <use xlink:href="#m8772c4d81b" x="495.781469" y="157.868093" style="fill: #34383c; stroke: #34383c; stroke-linejoin: miter"/>
     <use xlink:href="#m8772c4d81b" x="568.985047" y="150.183086" style="fill: #34383c; stroke: #34383c; stroke-linejoin: miter"/>
     <use xlink:href="#m8772c4d81b" x="642.188625" y="144.456304" style="fill: #34383c; stroke: #34383c; stroke-linejoin: miter"/>
     <use xlink:href="#m8772c4d81b" x="715.392203" y="140.18877" style="fill: #34383c; stroke: #34383c; stroke-linejoin: miter"/>
     <use xlink:href="#m8772c4d81b" x="788.595781" y="137.008652" style="fill: #34383c; stroke: #34383c; stroke-linejoin: miter"/>
    </g>
   </g>
   <g id="patch_3">
    <path d="M 56.56 340.915781
L 56.56 7.2
" style="fill: none; stroke: #545b62; stroke-width: 1.8; stroke-linejoin: miter; stroke-linecap: square"/>
   </g>
   <g id="patch_4">
    <path d="M 56.56 340.915781
L 788.595781 340.915781
" style="fill: none; stroke: #545b62; stroke-width: 1.8; stroke-linejoin: miter; stroke-linecap: square"/>
   </g>
   <g id="legend_1">
    <g id="patch_5">
     <path d="M 628.368281 332.915781
L 777.395781 332.915781
Q 780.595781 332.915781 780.595781 329.715781
L 780.595781 283.313281
Q 780.595781 280.113281 777.395781 280.113281
L 628.368281 280.113281
Q 625.168281 280.113281 625.168281 283.313281
L 625.168281 329.715781
Q 625.168281 332.915781 628.368281 332.915781
z
" style="fill: #ffffff; opacity: 0.8; stroke: #545b62; stroke-linejoin: miter"/>
    </g>
    <g id="line2d_31">
     <path d="M 631.568281 293.070781
L 647.568281 293.070781
L 663.568281 293.070781
" style="fill: none; stroke: #000000; stroke-width: 2.5; stroke-linecap: square"/>
     <g>
      <use xlink:href="#m9272bf99e7" x="647.568281" y="293.070781" style="stroke: #000000"/>
     </g>
    </g>
    <g id="text_17">
     <!-- Force-aware -->
     <g transform="translate(676.368281 298.670781) scale(0.16 -0.16)">
      <defs>
       <path id="DejaVuSans-29" d="M 628 4666
L 3309 4666
L 3309 4134
L 1259 4134
L 1259 2759
L 3109 2759
L 3109 2228
L 1259 2228
L 1259 0
L 628 0
L 628 4666
z
" transform="scale(0.015625)"/>
       <path id="DejaVuSans-52" d="M 1959 3097
Q 1497 3097 1228 2736
Q 959 2375 959 1747
Q 959 1119 1226 758
Q 1494 397 1959 397
Q 2419 397 2687 759
Q 2956 1122 2956 1747
Q 2956 2369 2687 2733
Q 2419 3097 1959 3097
z
M 1959 3584
Q 2709 3584 3137 3096
Q 3566 2609 3566 1747
Q 3566 888 3137 398
Q 2709 -91 1959 -91
Q 1206 -91 779 398
Q 353 888 353 1747
Q 353 2609 779 3096
Q 1206 3584 1959 3584
z
" transform="scale(0.015625)"/>
       <path id="DejaVuSans-10" d="M 313 2009
L 1997 2009
L 1997 1497
L 313 1497
L 313 2009
z
" transform="scale(0.015625)"/>
       <path id="DejaVuSans-5a" d="M 269 3500
L 844 3500
L 1563 769
L 2278 3500
L 2956 3500
L 3675 769
L 4391 3500
L 4966 3500
L 4050 0
L 3372 0
L 2619 2869
L 1863 0
L 1184 0
L 269 3500
z
" transform="scale(0.015625)"/>
      </defs>
      <use xlink:href="#DejaVuSans-29"/>
      <use xlink:href="#DejaVuSans-52" transform="translate(53.953125 0)"/>
      <use xlink:href="#DejaVuSans-55" transform="translate(115.140625 0)"/>
      <use xlink:href="#DejaVuSans-46" transform="translate(154.046875 0)"/>
      <use xlink:href="#DejaVuSans-48" transform="translate(209.03125 0)"/>
      <use xlink:href="#DejaVuSans-10" transform="translate(270.5625 0)"/>
      <use xlink:href="#DejaVuSans-44" transform="translate(306.640625 0)"/>
      <use xlink:href="#DejaVuSans-5a" transform="translate(367.921875 0)"/>
      <use xlink:href="#DejaVuSans-44" transform="translate(449.703125 0)"/>
      <use xlink:href="#DejaVuSans-55" transform="translate(510.984375 0)"/>
      <use xlink:href="#DejaVuSans-48" transform="translate(549.890625 0)"/>
     </g>
    </g>
    <g id="line2d_32">
     <path d="M 631.568281 317.072031
L 647.568281 317.072031
L 663.568281 317.072031
" style="fill: none; stroke-dasharray: 9.25,4; stroke-dashoffset: 0; stroke: #34383c; stroke-width: 2.5"/>
     <g>
      <use xlink:href="#m8772c4d81b" x="647.568281" y="317.072031" style="fill: #34383c; stroke: #34383c; stroke-linejoin: miter"/>
     </g>
    </g>
    <g id="text_18">
     <!-- Pose-only -->
     <g transform="translate(676.368281 322.672031) scale(0.16 -0.16)">
      <defs>
       <path id="DejaVuSans-33" d="M 1259 4147
L 1259 2394
L 2053 2394
Q 2494 2394 2734 2622
Q 2975 2850 2975 3272
Q 2975 3691 2734 3919
Q 2494 4147 2053 4147
L 1259 4147
z
M 628 4666
L 2053 4666
Q 2838 4666 3239 4311
Q 3641 3956 3641 3272
Q 3641 2581 3239 2228
Q 2838 1875 2053 1875
L 1259 1875
L 1259 0
L 628 0
L 628 4666
z
" transform="scale(0.015625)"/>
       <path id="DejaVuSans-4f" d="M 603 4863
L 1178 4863
L 1178 0
L 603 0
L 603 4863
z
" transform="scale(0.015625)"/>
       <path id="DejaVuSans-5c" d="M 2059 -325
Q 1816 -950 1584 -1140
Q 1353 -1331 966 -1331
L 506 -1331
L 506 -850
L 844 -850
Q 1081 -850 1212 -737
Q 1344 -625 1503 -206
L 1606 56
L 191 3500
L 800 3500
L 1894 763
L 2988 3500
L 3597 3500
L 2059 -325
z
" transform="scale(0.015625)"/>
      </defs>
      <use xlink:href="#DejaVuSans-33"/>
      <use xlink:href="#DejaVuSans-52" transform="translate(56.734375 0)"/>
      <use xlink:href="#DejaVuSans-56" transform="translate(117.921875 0)"/>
      <use xlink:href="#DejaVuSans-48" transform="translate(170.015625 0)"/>
      <use xlink:href="#DejaVuSans-10" transform="translate(231.546875 0)"/>
      <use xlink:href="#DejaVuSans-52" transform="translate(269.484375 0)"/>
      <use xlink:href="#DejaVuSans-51" transform="translate(330.671875 0)"/>
      <use xlink:href="#DejaVuSans-4f" transform="translate(394.046875 0)"/>
      <use xlink:href="#DejaVuSans-5c" transform="translate(421.828125 0)"/>
     </g>
    </g>
   </g>
  </g>
 </g>
 <defs>
  <clipPath id="p51d43095c0">
   <rect x="56.56" y="7.2" width="732.035781" height="333.715781"/>
  </clipPath>
 </defs>
</svg>
